# xmcd
#
# Track frame offsets:
#	150
#	16781
#	38014
#	60862
#	80941
#	97237
#	112709
#	130582
#	150251
#	167891
#	183019
#	199461
#	216619
#	235619
#	250668
#	266117
#	289275
#	303726
#	320098
#	336381
#
# Disc length: 4697 seconds
#
# Revision: 1
# Processed by: cddbd v1.5.2PL0 Copyright (c) Steve Scherf et al.
# Submitted via: EasyCDDAExtractor 15.3.0.1
#
DISCID=1e125714
DTITLE=Alejandra Guzman - Lo Esencial
DYEAR=2007
DGENRE=Latin
TTITLE0=Volverte A Amar
TTITLE1=Hacer El Amor Con Otro
TTITLE2=Rosas Rojas
TTITLE3=Llama Por Favor
TTITLE4=Cuidado Con El Corazon
TTITLE5=Reina De Corazones
TTITLE6=Un Grito En La Noche
TTITLE7=Te Esperaba
TTITLE8=La Ciudad Ardio
TTITLE9=Mala Hierba
TTITLE10=Pasa La Vida
TTITLE11=Toda La Mitad
TTITLE12=Enemigos
TTITLE13=De Verdad
TTITLE14=Diablo
TTITLE15=Angeles Caidos
TTITLE16=No Hay Vacuna Contra El Amor
TTITLE17=Quiero Estar Contigo
TTITLE18=Guerra Fria
TTITLE19=Al Pasar
EXTD=
EXTT0=
EXTT1=
EXTT2=
EXTT3=
EXTT4=
EXTT5=
EXTT6=
EXTT7=
EXTT8=
EXTT9=
EXTT10=
EXTT11=
EXTT12=
EXTT13=
EXTT14=
EXTT15=
EXTT16=
EXTT17=
EXTT18=
EXTT19=
PLAYORDER=
